<?xml version="1.0" encoding="UTF-8" standalone="no"?>
<!-- Created with Inkscape (http://www.inkscape.org/) -->

<svg
   xmlns:dc="http://purl.org/dc/elements/1.1/"
   xmlns:cc="http://creativecommons.org/ns#"
   xmlns:rdf="http://www.w3.org/1999/02/22-rdf-syntax-ns#"
   xmlns:svg="http://www.w3.org/2000/svg"
   xmlns="http://www.w3.org/2000/svg"
   xmlns:xlink="http://www.w3.org/1999/xlink"
   xmlns:sodipodi="http://sodipodi.sourceforge.net/DTD/sodipodi-0.dtd"
   xmlns:inkscape="http://www.inkscape.org/namespaces/inkscape"
   width="113.16682mm"
   height="76.697197mm"
   viewBox="0 0 400.98486 271.76175"
   id="svg2"
   version="1.1"
   inkscape:version="0.91 r13725"
   sodipodi:docname="pic petrolier.svg">
  <defs
     id="defs4">
    <clipPath
       id="SVGID_5_-12">
      <use
         id="use3018-3"
         style="overflow:visible"
         x="0"
         y="0"
         width="1"
         height="1"
         xlink:href="#SVGID_4_" />
    </clipPath>
    <clipPath
       id="SVGID_5_-3">
      <use
         id="use3018-41"
         style="overflow:visible"
         x="0"
         y="0"
         width="1"
         height="1"
         xlink:href="#SVGID_4_" />
    </clipPath>
    <clipPath
       id="SVGID_5_-0">
      <use
         id="use3018-2"
         style="overflow:visible"
         x="0"
         y="0"
         width="1"
         height="1"
         xlink:href="#SVGID_4_" />
    </clipPath>
    <clipPath
       id="SVGID_5_-8">
      <use
         id="use3018-65"
         style="overflow:visible"
         x="0"
         y="0"
         width="1"
         height="1"
         xlink:href="#SVGID_4_" />
    </clipPath>
    <clipPath
       id="SVGID_5_-06">
      <use
         id="use3018-1"
         style="overflow:visible"
         x="0"
         y="0"
         width="1"
         height="1"
         xlink:href="#SVGID_4_" />
    </clipPath>
    <clipPath
       id="SVGID_4_">
      <use
         id="use3512"
         style="overflow:visible"
         x="0"
         y="0"
         width="1"
         height="1"
         xlink:href="#SVGID_3_" />
    </clipPath>
    <clipPath
       id="SVGID_5_">
      <use
         xlink:href="#SVGID_4_-1"
         height="1"
         width="1"
         y="0"
         x="0"
         style="overflow:visible"
         id="use3018" />
    </clipPath>
    <clipPath
       id="SVGID_5_-7">
      <use
         xlink:href="#SVGID_4_-1"
         height="1"
         width="1"
         y="0"
         x="0"
         style="overflow:visible"
         id="use3018-6" />
    </clipPath>
    <clipPath
       id="SVGID_5_-1">
      <use
         xlink:href="#SVGID_4_-1"
         height="1"
         width="1"
         y="0"
         x="0"
         style="overflow:visible"
         id="use3018-4" />
    </clipPath>
    <clipPath
       id="SVGID_5_-12-0">
      <use
         xlink:href="#SVGID_4_-1"
         height="1"
         width="1"
         y="0"
         x="0"
         style="overflow:visible"
         id="use3018-3-4" />
    </clipPath>
    <clipPath
       id="SVGID_5_-3-8">
      <use
         xlink:href="#SVGID_4_-1"
         height="1"
         width="1"
         y="0"
         x="0"
         style="overflow:visible"
         id="use3018-41-4" />
    </clipPath>
    <clipPath
       id="SVGID_5_-0-8">
      <use
         xlink:href="#SVGID_4_-1"
         height="1"
         width="1"
         y="0"
         x="0"
         style="overflow:visible"
         id="use3018-2-1" />
    </clipPath>
    <clipPath
       id="SVGID_5_-8-6">
      <use
         xlink:href="#SVGID_4_-1"
         height="1"
         width="1"
         y="0"
         x="0"
         style="overflow:visible"
         id="use3018-65-8" />
    </clipPath>
    <clipPath
       id="SVGID_5_-06-5">
      <use
         xlink:href="#SVGID_4_-1"
         height="1"
         width="1"
         y="0"
         x="0"
         style="overflow:visible"
         id="use3018-1-2" />
    </clipPath>
    <clipPath
       id="SVGID_5_-82">
      <use
         xlink:href="#SVGID_4_-1"
         height="1"
         width="1"
         y="0"
         x="0"
         style="overflow:visible"
         id="use3018-9" />
    </clipPath>
    <defs
       id="defs3508">
      <path
         id="SVGID_3_"
         d="m 23.589,42.098 c 10.277,0 18.616,-8.373 18.616,-18.645 0,-10.207 -8.338,-18.581 -18.616,-18.581 -10.206,0 -18.615,8.374 -18.615,18.581 0,10.272 8.41,18.645 18.615,18.645 z"
         inkscape:connector-curvature="0" />
    </defs>
    <clipPath
       id="SVGID_4_-1">
      <use
         xlink:href="#SVGID_3_"
         height="1"
         width="1"
         y="0"
         x="0"
         style="overflow:visible"
         id="use3512-9" />
    </clipPath>
    <radialGradient
       gradientTransform="matrix(0.315,0,0,0.315,-193.939,-303.123)"
       gradientUnits="userSpaceOnUse"
       id="SVGID_5_-4"
       r="96.022903"
       cy="995.40698"
       cx="685.64899">
      <stop
         offset="0"
         style="stop-color:#ffffff;stop-opacity:1"
         id="stop3515" />
      <stop
         offset="0.59549999"
         style="stop-color:#57adff;stop-opacity:1"
         id="stop3517" />
      <stop
         offset="0.99440002"
         style="stop-color:#c9e6ff;stop-opacity:1"
         id="stop3519" />
    </radialGradient>
    <linearGradient
       gradientTransform="matrix(0.315,0,0,-0.315,-250.166,-358.406)"
       gradientUnits="userSpaceOnUse"
       id="SVGID_6_"
       y2="-1269.5601"
       x2="868.99597"
       y1="-1149.41"
       x1="868.99597">
      <stop
         offset="0"
         style="stop-color:#006a00;stop-opacity:1"
         id="stop3524" />
      <stop
         offset="0.2"
         style="stop-color:#004000;stop-opacity:1"
         id="stop3526" />
      <stop
         offset="1"
         style="stop-color:#00bd00;stop-opacity:1"
         id="stop3528" />
    </linearGradient>
    <radialGradient
       gradientTransform="matrix(0.315,0,0,0.315,-193.939,-303.123)"
       gradientUnits="userSpaceOnUse"
       xlink:href="#SVGID_5_-4"
       id="radialGradient3603"
       r="96.022903"
       cy="995.40698"
       cx="685.64899" />
  </defs>
  <sodipodi:namedview
     id="base"
     pagecolor="#ffffff"
     bordercolor="#666666"
     borderopacity="1.0"
     inkscape:pageopacity="0"
     inkscape:pageshadow="2"
     inkscape:zoom="0.74390084"
     inkscape:cx="316.77127"
     inkscape:cy="189.04611"
     inkscape:document-units="px"
     inkscape:current-layer="layer1"
     showgrid="false"
     showguides="true"
     inkscape:guide-bbox="true"
     inkscape:window-width="1855"
     inkscape:window-height="1056"
     inkscape:window-x="65"
     inkscape:window-y="24"
     inkscape:window-maximized="1"
     fit-margin-top="0"
     fit-margin-left="0"
     fit-margin-right="0"
     fit-margin-bottom="0"
     borderlayer="false">
    <inkscape:grid
       type="xygrid"
       id="grid4149"
       originx="-5.7419114"
       originy="-783.96142" />
  </sodipodi:namedview>
  <metadata
     id="metadata7">
    <rdf:RDF>
      <cc:Work
         rdf:about="">
        <dc:format>image/svg+xml</dc:format>
        <dc:type
           rdf:resource="http://purl.org/dc/dcmitype/StillImage" />
        <dc:title></dc:title>
        <cc:license
           rdf:resource="http://creativecommons.org/publicdomain/zero/1.0/" />
      </cc:Work>
      <cc:License
         rdf:about="http://creativecommons.org/publicdomain/zero/1.0/">
        <cc:permits
           rdf:resource="http://creativecommons.org/ns#Reproduction" />
        <cc:permits
           rdf:resource="http://creativecommons.org/ns#Distribution" />
        <cc:permits
           rdf:resource="http://creativecommons.org/ns#DerivativeWorks" />
      </cc:License>
    </rdf:RDF>
  </metadata>
  <g
     inkscape:groupmode="layer"
     id="layer2"
     inkscape:label="Calque 2"
     transform="translate(-3.9235942e-4,16.110338)" />
  <g
     inkscape:label="Calque 1"
     inkscape:groupmode="layer"
     id="layer1"
     transform="translate(-5.7419102,3.3608131)">
    <path
       style="fill:#000000;fill-opacity:1;fill-rule:evenodd;stroke:#ffffff;stroke-width:12.00000095;stroke-linecap:butt;stroke-linejoin:miter;stroke-miterlimit:4;stroke-dasharray:none;stroke-opacity:0"
       d="m 199.78906,45.933594 c -84.25699,0 -72.64368,193.756706 -198.5722631,219.828126 l 141.9687531,0 0,-23.41016 8.31836,0 0,-46.22851 c -12.28454,-16.24454 -14.24322,-74.22064 18.63476,-79.44532 l -4.94726,23.26563 67.89648,26.79102 0.90625,-4.60352 27.63672,6.74023 -5.54492,28.51172 -26.22852,-14.25586 1.34961,-6.84961 -21.87695,-8.63281 29.63672,98.11719 160.82031,0 C 275.35854,240.40458 283.94161,45.933594 199.78906,45.933594 Z m -36.61718,103.498046 -9.99219,46.98242 0,45.9375 9.08789,0 0,23.41016 4.99414,0 30.99805,-102.48438 -35.08789,-13.8457 z m 39.96289,23.47266 -12.68165,41.91992 21.71876,-12.00195 -9.03711,-29.91797 z m 11.78515,39.01758 -22.35742,12.35546 31.74023,18.70899 -9.38281,-31.06445 z m -29.30664,18.90234 -10.56836,34.9375 56.13867,0 -2.96875,-9.82813 -42.60156,-25.10937 z"
       transform="translate(5.7415179,-3.3607826)"
       id="path4147"
       inkscape:connector-curvature="0" />
    <path
       style="font-style:normal;font-weight:normal;font-size:40px;line-height:125%;font-family:sans-serif;letter-spacing:21px;word-spacing:0px;fill:#000000;fill-opacity:1;stroke:none;stroke-width:1px;stroke-linecap:butt;stroke-linejoin:miter;stroke-opacity:1"
       d="m 173.32043,-3.3608131 -4.35969,7.1066405 2.93036,1.8825961 5.45594,-6.30975272 -4.02661,-2.67948388 z m 57.4118,5.6941667 -1.8046,4.0160631 6.41938,2.8839764 -9.14102,20.3628129 4.88251,2.192497 9.14314,-20.362813 6.42149,2.881868 1.80248,-4.018171 -17.72338,-7.9562334 z m -48.24968,0.2677376 -14.86049,6.4257015 10.6083,24.5306643 15.73117,-6.803064 -1.74768,-4.041361 -10.85707,4.694894 -2.98306,-6.895824 8.67934,-3.752542 -1.74768,-4.041362 -8.67934,3.752542 -2.38223,-5.508647 9.98852,-4.3175319 -1.74978,-4.0434699 z m 95.10797,35.8936988 -21.69097,14.938492 3.01258,4.374453 8.10591,-5.584543 1.56848,2.276824 c -0.77979,1.760283 -1.58878,3.453158 -2.4265,5.07858 -0.79769,1.63281 -1.7212,3.210154 -2.76803,4.73495 l 3.16015,4.587378 c 0.53895,-0.790577 1.07166,-1.66448 1.6001,-2.622563 0.56847,-0.950704 1.10907,-1.916945 1.62118,-2.898734 0.53582,-0.998115 1.01732,-1.975948 1.44199,-2.932464 0.44838,-0.972841 0.84178,-1.873092 1.18058,-2.700565 1.37785,0.833474 2.76774,1.151833 4.16996,0.955 1.40221,-0.196826 2.74229,-0.735351 4.02238,-1.616965 1.23269,-0.848963 2.16163,-1.784695 2.7849,-2.808083 0.66329,-1.016008 1.03712,-2.095126 1.12365,-3.238149 0.0865,-1.143023 -0.0779,-2.322261 -0.49542,-3.537509 -0.41756,-1.215248 -1.05947,-2.451882 -1.92475,-3.708271 -0.24491,-0.355575 -0.54153,-0.762848 -0.89177,-1.22063 -0.35023,-0.457783 -0.72972,-0.929931 -1.1363,-1.418798 -0.38288,-0.505194 -0.80036,-0.985774 -1.25436,-1.441989 -0.41396,-0.448829 -0.81507,-0.85502 -1.20376,-1.216414 z m -138.50254,1.446205 c -0.21935,-0.0103 -0.43786,-0.01002 -0.65354,0.0021 -0.57516,0.03233 -1.13763,0.143419 -1.68653,0.335199 -2.2194,0.750903 -4.2863,2.529869 -6.20013,5.335778 -0.27572,0.404243 -0.5798,0.875226 -0.91284,1.414582 -0.33304,0.539355 -0.66325,1.09875 -0.98873,1.678103 -0.34926,0.563135 -0.67438,1.143668 -0.97609,1.73924 -0.28541,0.571794 -0.52627,1.102988 -0.7231,1.595885 l 21.79427,14.864705 2.99148,-4.387101 -7.45448,-5.084906 1.07095,-1.568478 c 1.94628,-2.853467 2.86421,-5.451436 2.75327,-7.791796 -0.1185,-2.38035 -1.49888,-4.469394 -4.13834,-6.269696 -1.71655,-1.170806 -3.34077,-1.791548 -4.87619,-1.863623 z m 138.17156,5.230369 c 0.21066,0.204403 0.3975,0.424911 0.56077,0.661966 0.18696,0.220721 0.33686,0.413809 0.45115,0.579747 0.79997,1.161566 1.17276,2.286406 1.11732,3.373071 -0.0554,1.086666 -0.6641,2.029181 -1.82567,2.829165 -1.06675,0.734677 -2.12514,0.974483 -3.1749,0.718885 -1.02606,-0.271924 -2.05359,-1.154419 -3.08215,-2.647862 l -0.65986,-0.961325 6.61334,-4.553647 z m -139.05278,0.17287 c 0.80872,-0.03634 1.69325,0.272835 2.65629,0.929704 1.35541,0.924479 2.07464,1.937357 2.15877,3.03998 0.0603,1.086405 -0.38599,2.33272 -1.3429,3.735677 l -1.21642,1.783512 -7.13405,-4.865656 c 0.13086,-0.294006 0.34959,-0.667638 0.65776,-1.119439 0.30059,-0.491797 0.54048,-0.86841 0.71888,-1.129979 0.79472,-1.165168 1.70017,-1.905464 2.71743,-2.22201 0.25242,-0.08914 0.51467,-0.139674 0.78424,-0.151789 z m 160.01009,36.933027 c -2.37418,0.07878 -5.11987,0.863851 -8.23452,2.356934 -4.15278,1.990779 -6.93766,4.235875 -8.35677,6.735604 -1.38073,2.513234 -1.39417,5.186128 -0.038,8.015261 1.31888,2.75126 3.39084,4.37441 6.21488,4.87198 2.85,0.48514 6.35215,-0.26707 10.50502,-2.25785 4.15285,-1.99075 6.92566,-4.229349 8.31883,-6.716628 1.41912,-2.499729 1.45108,-5.165055 0.0949,-7.99418 -1.30645,-2.725313 -3.3904,-4.344024 -6.25283,-4.855115 -0.70913,-0.130884 -1.46014,-0.182266 -2.25153,-0.156006 z m 0.99927,5.017445 c 0.64205,0.0034 1.21625,0.111326 1.72449,0.32255 0.67764,0.281631 1.2167,0.836991 1.61485,1.667562 0.39816,0.830571 0.49366,1.599565 0.28882,2.304229 -0.20483,0.704672 -0.62186,1.367623 -1.25014,1.988004 -0.61584,0.646338 -1.42351,1.25644 -2.4244,1.832 -0.96249,0.589074 -2.02799,1.162469 -3.19598,1.722375 -1.16799,0.559906 -2.28153,1.031043 -3.34356,1.412474 -1.04958,0.407386 -2.03381,0.656421 -2.94933,0.744184 -0.87713,0.101275 -1.66052,-0.0023 -2.35061,-0.309901 -0.67764,-0.281631 -1.20806,-0.825 -1.59378,-1.629615 -0.39815,-0.830572 -0.49576,-1.597457 -0.29092,-2.302121 0.20483,-0.704672 0.6154,-1.381723 1.23116,-2.02806 0.62829,-0.620382 1.42397,-1.223953 2.38645,-1.813026 1.00089,-0.57556 2.08492,-1.143495 3.25291,-1.703401 1.168,-0.559906 2.27711,-1.043035 3.3267,-1.450421 1.06203,-0.381431 2.03214,-0.623935 2.90927,-0.72521 0.22888,-0.02194 0.45006,-0.03277 0.66407,-0.03162 z m 22.36136,33.654814 -24.20811,11.3251 7.11717,15.21255 3.98867,-1.86784 -4.8488,-10.36166 20.21946,-9.45935 -2.26839,-4.8488 z m -244.634139,37.07218 -0.895972,0.53547 c -0.384316,0.21293 -0.806743,0.52078 -1.264902,0.92338 -0.458159,0.4026 -0.939276,0.90727 -1.446205,1.51366 -0.517872,0.56718 -1.011489,1.26381 -1.477826,2.09131 -0.862019,1.52962 -1.383201,3.10325 -1.566371,4.71809 -0.194112,1.57561 -0.03342,3.13584 0.482772,4.68224 0.505235,1.5072 1.362073,2.94727 2.569858,4.32174 1.207786,1.37449 2.776709,2.60751 4.707543,3.69563 3.886745,2.19038 7.370871,3.01396 10.452308,2.47077 3.08143,-0.54312 5.54635,-2.45772 7.39757,-5.74265 0.81962,-1.4544 1.37808,-2.826 1.67388,-4.11304 0.28486,-1.32626 0.41116,-2.42754 0.37737,-3.30561 l -4.30699,-0.88965 c 0.007,0.63189 -0.0766,1.42647 -0.25299,2.38434 -0.16224,0.93279 -0.58237,2.00079 -1.26068,3.20442 -1.17291,2.08129 -2.72352,3.19025 -4.65062,3.32669 -1.938056,0.0972 -4.235687,-0.60391 -6.89372,-2.10184 -1.529621,-0.86203 -2.7163,-1.7446 -3.560698,-2.64997 -0.830266,-0.93045 -1.398343,-1.82856 -1.703402,-2.69424 -0.316002,-0.90495 -0.409069,-1.76837 -0.278277,-2.58673 0.119847,-0.85757 0.384967,-1.64871 0.794779,-2.3759 0.593522,-1.05319 1.255748,-1.90392 1.983789,-2.55089 0.717089,-0.68618 1.425982,-1.21215 2.127143,-1.57691 l -3.008359,-3.28031 z m 262.753859,0.12017 -3.82633,2.17984 2.88608,5.06593 -15.56672,8.87118 -2.88609,-5.06382 -3.82632,2.17984 8.40105,14.74243 3.82633,-2.18195 -2.865,-5.02588 15.56672,-8.87118 2.86501,5.02588 3.82632,-2.17985 -8.40105,-14.74242 z m -285.062512,33.51356 -10.871832,13.0285 3.381504,2.82073 3.73357,-4.47354 13.757916,11.47898 -3.733569,4.47565 3.381505,2.82073 10.869723,-13.02848 -3.381504,-2.82074 -3.706163,4.44192 -13.755808,-11.47899 3.706162,-4.44191 -3.381504,-2.82285 z m 306.203242,0.3078 -20.5146,17.12888 10.98567,13.15708 3.37939,-2.82283 -7.58098,-9.07989 5.76585,-4.81506 6.06098,7.25843 3.3794,-2.82284 -6.05888,-7.25843 4.60636,-3.8453 6.97382,8.35046 3.3794,-2.82073 -10.37641,-12.42977 z m 24.67612,26.38164 -14.49156,21.99031 4.43348,2.92192 5.41801,-8.21974 2.30634,1.5221 c -0.0617,1.92428 -0.17556,3.79721 -0.34153,5.61826 -0.12612,1.81287 -0.38877,3.62223 -0.78635,5.42854 l 4.65063,3.06317 c 0.20261,-0.93511 0.36967,-1.94513 0.49963,-3.03154 0.16983,-1.0946 0.30728,-2.19282 0.4132,-3.29508 0.12176,-1.12627 0.19963,-2.21324 0.23401,-3.25923 0.0502,-1.07001 0.0769,-2.05096 0.0801,-2.9451 1.59001,0.25501 2.99911,0.0281 4.22477,-0.68094 1.22566,-0.70903 2.26477,-1.71266 3.12009,-3.01048 0.82363,-1.24967 1.333,-2.46669 1.52632,-3.64923 0.23318,-1.19074 0.17408,-2.33182 -0.17498,-3.42367 -0.34907,-1.09185 -0.94435,-2.1211 -1.78773,-3.09058 -0.84337,-0.96949 -1.90112,-1.87585 -3.1749,-2.71533 -0.36051,-0.23758 -0.78948,-0.50203 -1.28599,-0.79477 -0.49651,-0.29275 -1.02492,-0.58925 -1.58535,-0.88965 -0.54457,-0.32443 -1.1134,-0.61202 -1.7055,-0.86435 -0.55222,-0.26051 -1.07673,-0.48564 -1.5727,-0.67461 z m -357.326353,2.05968 c -2.100631,0.0866 -4.394065,0.94599 -6.878958,2.57618 -0.409128,0.26841 -0.869279,0.5878 -1.382959,0.95922 -0.513673,0.37141 -1.031763,0.76297 -1.553721,1.17425 -0.537747,0.38721 -1.060207,0.79793 -1.56637,1.23328 -0.482103,0.41956 -0.907505,0.81908 -1.277551,1.19955 l 14.470478,22.05777 4.439805,-2.91348 -4.949982,-7.54514 1.587452,-1.04143 c 2.888003,-1.89466 4.728496,-3.944 5.519188,-6.14954 0.79897,-2.2454 0.3211,-4.70507 -1.431447,-7.37648 -1.73676,-2.64735 -3.766197,-4.0347 -6.088395,-4.16365 -0.292248,-0.019 -0.587449,-0.0229 -0.88754,-0.0105 z m 359.527293,4.25217 c 0.27201,0.11033 0.52914,0.24428 0.76948,0.40267 0.25617,0.13436 0.46843,0.25594 0.63666,0.36682 1.17765,0.77612 1.94331,1.67894 2.30002,2.70689 0.35671,1.02794 0.14788,2.13007 -0.62824,3.30772 -0.71276,1.08151 -1.60424,1.70212 -2.67315,1.8594 -1.05308,0.13331 -2.33541,-0.30076 -3.84953,-1.29863 l -0.97397,-0.64088 4.41873,-6.70399 z m -360.005847,0.83695 c 1.069354,0.0558 2.031386,0.73478 2.883976,2.03439 0.899958,1.37179 1.177909,2.58322 0.834835,3.63448 -0.358855,1.0272 -1.249004,2.00514 -2.668943,2.93668 l -1.804593,1.1848 -4.737058,-7.22049 c 0.233158,-0.22181 0.577844,-0.48214 1.035112,-0.78213 0.465547,-0.33984 0.831514,-0.5958 1.096249,-0.76949 1.179271,-0.77364 2.299345,-1.1139 3.360422,-1.01824 z"
       id="text4151"
       inkscape:connector-curvature="0" />
  </g>
</svg>
